<?xml version="1.0" standalone="no"?>
<!DOCTYPE svg PUBLIC "-//W3C//DTD SVG 20010904//EN"
 "http://www.w3.org/TR/2001/REC-SVG-20010904/DTD/svg10.dtd">
<svg version="1.0" xmlns="http://www.w3.org/2000/svg"
 width="1920.000000pt" height="585.000000pt" viewBox="0 0 1920.000000 585.000000"
 preserveAspectRatio="xMidYMid meet">

<g transform="translate(0.000000,585.000000) scale(0.100000,-0.100000)"
fill="#000000" stroke="none">
<path d="M9813 5735 c-23 -16 -28 -46 -38 -235 -3 -58 -17 -279 -30 -492 -26
-405 -25 -426 16 -448 26 -14 82 -5 100 16 12 15 22 129 43 504 4 63 14 216
21 340 19 287 19 286 -5 310 -24 24 -76 26 -107 5z"/>
<path d="M16520 5274 c-287 -31 -497 -89 -752 -205 -509 -233 -959 -410 -1513
-597 -235 -79 -675 -215 -743 -230 -13 -2 -26 -11 -29 -18 -5 -13 101 -332
115 -346 7 -6 205 54 737 224 467 149 1066 381 1525 591 199 91 319 133 470
165 427 92 868 21 1185 -191 85 -57 225 -203 263 -275 96 -180 99 -265 21
-642 -83 -397 -92 -460 -93 -655 -1 -197 9 -268 55 -400 104 -296 320 -518
674 -690 182 -89 467 -186 703 -239 l62 -14 -2 195 -3 196 -102 28 c-592 159
-912 387 -989 705 -12 49 -17 110 -17 214 1 157 14 246 83 570 52 245 74 415
66 510 -11 125 -43 237 -100 355 -121 247 -310 425 -601 566 -188 91 -303 128
-515 165 -80 15 -421 27 -500 18z"/>
<path d="M8438 5218 c-24 -19 -35 -47 -30 -73 4 -22 562 -722 604 -757 30 -27
73 -23 97 8 33 42 26 67 -42 151 -35 43 -150 186 -257 318 -277 343 -296 365
-329 365 -15 0 -34 -6 -43 -12z"/>
<path d="M11274 5096 c-11 -8 -106 -106 -210 -217 -104 -112 -237 -255 -296
-318 -96 -103 -108 -119 -108 -152 0 -64 64 -94 116 -53 38 30 588 624 602
650 34 65 -44 132 -104 90z"/>
<path d="M3215 4540 c-139 -24 -212 -45 -329 -92 -210 -83 -402 -197 -616
-365 -426 -333 -836 -535 -1381 -677 -216 -56 -643 -130 -854 -148 l-30 -3 -3
-193 -2 -193 47 6 c408 45 616 80 898 152 603 153 1066 376 1560 753 253 194
395 274 598 339 157 50 260 64 427 58 141 -6 215 -19 326 -60 179 -66 350
-209 423 -356 44 -87 54 -149 48 -280 -6 -141 -16 -180 -157 -606 -135 -413
-155 -505 -155 -720 1 -195 19 -274 100 -442 45 -92 67 -125 124 -181 106
-106 279 -187 481 -223 124 -23 491 -18 678 10 245 35 544 102 820 182 100 29
464 153 482 164 10 6 -96 322 -115 343 -9 10 -37 4 -146 -34 -815 -284 -1526
-376 -1829 -238 -144 66 -214 207 -213 429 1 158 28 271 153 645 114 341 145
461 160 619 45 477 -258 890 -783 1066 -56 19 -145 41 -197 50 -131 21 -385
19 -515 -5z"/>
<path d="M12201 4465 c-67 -15 -508 -162 -527 -176 -11 -9 -10 -13 236 -724
78 -225 174 -504 212 -620 39 -115 76 -216 83 -223 10 -11 55 2 246 68 129 45
268 99 309 121 156 81 268 197 351 364 61 123 79 191 86 322 21 367 -186 690
-530 827 -136 54 -326 71 -466 41z"/>
<path d="M11370 4254 c-69 -25 -131 -52 -137 -61 -22 -28 -15 -69 38 -221 56
-160 196 -569 375 -1092 70 -202 124 -344 136 -357 29 -31 56 -29 173 12 151
53 172 64 185 96 13 32 2 69 -270 854 -78 226 -170 492 -205 593 -35 101 -71
192 -81 203 -26 29 -74 23 -214 -27z"/>
<path d="M7583 4228 c-34 -16 -48 -60 -30 -95 13 -25 48 -41 284 -135 494
-196 552 -218 573 -218 26 0 70 43 70 69 0 39 -44 69 -185 124 -77 31 -260
103 -407 161 -147 58 -271 106 -275 105 -4 0 -18 -5 -30 -11z"/>
<path d="M13265 4194 c-66 -24 -125 -46 -132 -48 -9 -4 9 -66 58 -208 39 -112
74 -207 79 -212 10 -10 246 68 267 88 9 8 -1 47 -42 166 -74 215 -89 253 -100
256 -6 1 -64 -18 -130 -42z"/>
<path d="M10885 3826 c-165 -56 -317 -111 -337 -120 -71 -34 -83 -137 -20
-186 44 -35 100 -23 422 89 162 57 303 105 313 108 9 3 17 13 16 22 -1 35 -65
186 -79 188 -8 1 -150 -44 -315 -101z"/>
<path d="M8205 3351 c-123 -42 -142 -51 -158 -79 l-18 -31 54 -163 c81 -240
485 -1409 502 -1450 3 -9 19 -22 35 -28 26 -11 45 -7 168 34 77 26 146 55 155
64 32 36 28 57 -44 263 -68 195 -138 398 -373 1084 -59 171 -114 317 -124 326
-31 30 -56 28 -197 -20z"/>
<path d="M7733 3106 c-230 -80 -317 -117 -390 -167 -272 -187 -411 -532 -344
-854 15 -75 34 -129 77 -215 51 -102 67 -125 148 -205 146 -145 306 -222 505
-245 164 -18 266 2 606 123 153 55 179 67 177 83 -4 17 -160 476 -406 1189
-51 149 -100 290 -108 315 -10 31 -21 46 -34 47 -10 1 -114 -31 -231 -71z"/>
<path d="M11460 2873 c-553 -189 -578 -199 -601 -237 -30 -49 -25 -92 15 -132
51 -51 77 -47 368 55 139 48 278 96 308 106 97 31 93 22 56 132 -25 76 -37 98
-52 100 -10 1 -53 -10 -94 -24z"/>
<path d="M6776 2134 c-72 -24 -133 -47 -138 -52 -8 -8 125 -399 141 -415 9 -9
245 65 268 85 9 7 -4 57 -57 211 -39 110 -73 204 -77 208 -5 4 -66 -13 -137
-37z"/>
<path d="M11372 1884 c-38 -16 -52 -56 -31 -93 14 -26 262 -156 680 -357 139
-66 159 -73 182 -63 35 16 53 53 41 87 -8 23 -64 55 -399 224 -214 108 -402
201 -416 206 -18 7 -35 6 -57 -4z"/>
<path d="M10735 1375 c-14 -13 -25 -33 -25 -45 0 -15 234 -585 394 -962 17
-41 41 -58 80 -58 26 0 66 41 66 67 0 13 -76 198 -324 793 -47 113 -93 211
-103 218 -26 19 -62 14 -88 -13z"/>
<path d="M9208 1279 c-19 -11 -51 -59 -233 -349 -67 -107 -154 -245 -193 -306
-38 -61 -73 -120 -76 -131 -9 -28 11 -68 40 -82 56 -25 65 -14 320 392 133
210 244 390 248 400 7 22 -17 72 -39 81 -23 9 -47 7 -67 -5z"/>
<path d="M9926 1164 c-9 -8 -18 -25 -21 -37 -3 -12 -4 -235 -3 -495 3 -456 4
-474 22 -488 27 -19 70 -18 89 4 15 17 17 67 17 509 0 462 -1 491 -18 506 -23
21 -66 22 -86 1z"/>
</g>
</svg>
